HIERARCHY
ROOT Hips
{
	OFFSET -3.958830 18.904000 13.208200
	CHANNELS 6 Xposition Yposition Zposition Zrotation Yrotation Xrotation 
	JOINT LHipJoint
	{
		OFFSET 0.000000 0.000000 0.000000
		CHANNELS 3 Zrotation Yrotation Xrotation
		JOINT LeftUpLeg
		{
			OFFSET 1.800000 -1.400000 0.085000
			CHANNELS 3 Zrotation Yrotation Xrotation
			JOINT LeftLeg
			{
				OFFSET 2.215000 -6.000000 0.000000
				CHANNELS 3 Zrotation Yrotation Xrotation
				JOINT LeftFoot
				{
					OFFSET 2.500000 -6.900000 0.000000
					CHANNELS 3 Zrotation Yrotation Xrotation
					JOINT LeftToeBase
					{
						OFFSET 0.200000 -0.500000 1.950000
						CHANNELS 3 Zrotation Yrotation Xrotation
						End Site
						{
							OFFSET 0.000000 0.000000 0.000000
						}
					}
				}
			}
		}
	}
	JOINT RHipJoint
	{
		OFFSET 0.000000 0.000000 0.000000
		CHANNELS 3 Zrotation Yrotation Xrotation
		JOINT RightUpLeg
		{
			OFFSET -1.800000 -1.400000 0.085000
			CHANNELS 3 Zrotation Yrotation Xrotation
			JOINT RightLeg
			{
				OFFSET -2.215000 -6.000000 0.000000
				CHANNELS 3 Zrotation Yrotation Xrotation
				JOINT RightFoot
				{
					OFFSET -2.500000 -6.900000 0.000000
					CHANNELS 3 Zrotation Yrotation Xrotation
					JOINT RightToeBase
					{
						OFFSET -0.200000 -0.500000 1.950000
						CHANNELS 3 Zrotation Yrotation Xrotation
						End Site
						{
							OFFSET 0.000000 0.000000 0.000000
						}
					}
				}
			}
		}
	}
	JOINT LowerBack
	{
		OFFSET 0.000000 0.000000 0.000000
		CHANNELS 3 Zrotation Yrotation Xrotation
		JOINT Spine
		{
			OFFSET -0.087000 1.940000 -0.288900
			CHANNELS 3 Zrotation Yrotation Xrotation
			JOINT Spine1
			{
				OFFSET 0.000000 1.950000 0.060000
				CHANNELS 3 Zrotation Yrotation Xrotation
				JOINT Neck
				{
					OFFSET 0.000000 0.000000 0.000000
					CHANNELS 3 Zrotation Yrotation Xrotation
					JOINT Neck1
					{
						OFFSET 0.000000 1.600000 0.340000
						CHANNELS 3 Zrotation Yrotation Xrotation
						JOINT Head
						{
							OFFSET 0.000000 1.667000 -0.240000
							CHANNELS 3 Zrotation Yrotation Xrotation
							End Site
							{
								OFFSET 0.000000 0.000000 0.000000
							}
						}
					}
				}
				JOINT LeftShoulder
				{
					OFFSET 0.000000 0.000000 0.000000
					CHANNELS 3 Zrotation Yrotation Xrotation
					JOINT LeftArm
					{
						OFFSET 2.700000 1.550000 -0.730000
						CHANNELS 3 Zrotation Yrotation Xrotation
						JOINT LeftForeArm
						{
							OFFSET 5.450000 0.000000 0.000000
							CHANNELS 3 Zrotation Yrotation Xrotation
							JOINT LeftHand
							{
								OFFSET 3.450000 0.000000 0.000000
								CHANNELS 3 Zrotation Yrotation Xrotation
								JOINT LeftHandIndex1
								{
									OFFSET 0.750000 0.000000 0.000000
									CHANNELS 3 Zrotation Yrotation Xrotation
									End Site
									{
										OFFSET 0.000000 0.000000 0.000000
									}
								}
							}
						}
					}
				}
				JOINT RightShoulder
				{
					OFFSET 0.000000 0.000000 0.000000
					CHANNELS 3 Zrotation Yrotation Xrotation
					JOINT RightArm
					{
						OFFSET -2.700000 1.550000 -0.730000
						CHANNELS 3 Zrotation Yrotation Xrotation
						JOINT RightForeArm
						{
							OFFSET -5.450000 0.000000 0.000000
							CHANNELS 3 Zrotation Yrotation Xrotation
							JOINT RightHand
							{
								OFFSET -3.450000 0.000000 0.000000
								CHANNELS 3 Zrotation Yrotation Xrotation
								JOINT RightHandIndex1
								{
									OFFSET -0.750000 0.000000 0.000000
									CHANNELS 3 Zrotation Yrotation Xrotation
									End Site
									{
										OFFSET 0.000000 0.000000 0.000000
									}
								}
							}
						}
					}
				}
			}
		}
	}
}
MOTION
Frames: 11
Frame Time: 0.016667
0.435040 16.821360 -1.063800 -4.218346 -2.630046 2.810645 -14.940847 12.908692 2.928493 1.584255 -0.403191 -5.192377 -6.755923 4.370310 4.933734 -0.565136 4.116536 3.636958 0.524860 0.015500 0.225070 18.569123 -10.964225 3.005301 0.789297 -0.231694 -5.655619 5.951046 -4.749651 6.126837 -0.628939 -3.705086 3.392505 -0.017180 0.567810 0.506750 -4.301353 -0.836952 -7.307260 12.881244 0.115388 3.490702 -5.490459 0.193989 6.181349 3.000977 -3.860324 -10.704356 -8.403175 4.831796 37.038375 -1.226000 1.926600 -11.783720 -31.954221 -15.969171 6.203675 -52.798100 -4.766828 -2.350418 -12.719274 -18.440744 -0.696477 -3.698741 2.810633 0.894230 0.251410 0.033000 0.479560 25.838871 20.110513 8.469133 57.743291 9.116093 -4.098540 14.474527 21.531478 0.786219 1.824678 -1.386781 -0.259480 0.329200 -0.047740 -0.184080 
0.435880 16.822830 -1.063550 -4.291758 -2.671302 2.787379 -14.934548 12.907662 2.928727 1.639987 -0.394327 -5.135930 -6.734153 4.361877 4.866869 -0.565321 4.111712 3.635367 0.523320 0.018560 0.223670 18.575128 -10.964243 3.010874 0.853102 -0.241343 -5.615587 5.946309 -4.747186 6.093817 -0.631280 -3.701548 3.393119 -0.016460 0.561900 0.502180 -4.318588 -0.832391 -7.313625 13.059959 0.099986 3.520127 -5.581735 0.186625 6.189276 3.034087 -3.880286 -10.740664 -8.460702 4.857484 37.205953 -1.241100 1.954450 -11.960480 -31.980755 -16.007988 6.228859 -52.767822 -4.726987 -2.384633 -12.766065 -18.501510 -0.687787 -3.693321 2.806532 0.897190 0.246520 0.036630 0.476130 25.782424 20.163334 8.491079 57.792599 9.147116 -4.094935 14.468908 21.528965 0.790799 1.826246 -1.380724 -0.259580 0.330880 -0.046570 -0.184920 
0.436610 16.824050 -1.064180 -4.317640 -2.701676 2.779753 -14.932586 12.909922 2.933199 1.647892 -0.394617 -5.107928 -6.715218 4.347491 4.796036 -0.562492 4.105050 3.635520 0.528820 0.023770 0.229230 18.576261 -10.962959 3.012955 0.891786 -0.241862 -5.619312 5.907415 -4.738574 6.093914 -0.635429 -3.692580 3.393616 -0.016240 0.554430 0.503450 -4.322637 -0.838354 -7.321409 13.131939 0.089086 3.571469 -5.614714 0.187090 6.167387 3.052404 -3.927589 -10.770183 -8.570259 4.884356 37.315005 -1.205490 1.952890 -12.160420 -32.019395 -16.014559 6.235635 -52.812567 -4.705326 -2.421039 -12.693613 -18.548450 -0.700305 -3.685133 2.808693 0.901590 0.239790 0.043530 0.476530 25.778754 20.211696 8.516316 57.773668 9.137891 -4.108506 14.466106 21.521952 0.795436 1.829240 -1.379700 -0.255680 0.328390 -0.050560 -0.185260 
0.435610 16.825520 -1.065340 -4.297832 -2.761558 2.757106 -14.934413 12.917927 2.941134 1.639067 -0.392183 -5.092479 -6.719364 4.340503 4.752087 -0.556025 4.097232 3.637205 0.534550 0.032110 0.232970 18.572238 -10.963479 3.012419 0.935635 -0.241166 -5.648109 5.787549 -4.721683 6.162008 -0.639410 -3.677704 3.396495 -0.015670 0.548420 0.504610 -4.312926 -0.853115 -7.332888 13.076865 0.102718 3.664882 -5.591567 0.220226 6.148915 3.052006 -3.963593 -10.827962 -8.670595 4.918409 37.446405 -1.084610 1.939610 -12.380890 -32.025258 -16.073583 6.259507 -52.863605 -4.707329 -2.455253 -12.610153 -18.589683 -0.712251 -3.675587 2.809597 0.905290 0.232890 0.052320 0.479060 25.794714 20.317161 8.569600 57.721338 9.100466 -4.149397 14.516229 21.549449 0.804531 1.832920 -1.378761 -0.250550 0.327380 -0.056470 -0.182630 
0.433830 16.826030 -1.066370 -4.266530 -2.789296 2.750478 -14.937011 12.922851 2.946785 1.628564 -0.391580 -5.087440 -6.739793 4.339559 4.725756 -0.552143 4.091896 3.637481 0.539060 0.038650 0.237380 18.568547 -10.965020 3.008283 0.964691 -0.237497 -5.691958 5.673822 -4.709220 6.268735 -0.640381 -3.666889 3.397014 -0.014580 0.542580 0.504630 -4.303112 -0.861819 -7.336369 13.005689 0.109212 3.718442 -5.576133 0.238154 6.147561 3.049380 -3.977610 -10.844702 -8.709202 4.920563 37.453533 -1.072430 1.951980 -12.520450 -31.950405 -16.084906 6.262908 -52.930208 -4.752394 -2.464599 -12.625249 -18.631956 -0.708633 -3.669850 2.812496 0.906190 0.228290 0.056900 0.478730 25.733684 20.348769 8.576137 57.794656 9.136016 -4.150210 14.559712 21.566532 0.807315 1.836881 -1.380676 -0.246620 0.324550 -0.060760 -0.181900 
0.433230 16.825450 -1.066770 -4.315090 -2.797963 2.785817 -14.933264 12.918455 2.943045 1.685054 -0.401165 -5.125697 -6.767180 4.341385 4.720725 -0.550240 4.090336 3.636930 0.542730 0.042120 0.241080 18.573735 -10.966302 3.006506 1.055632 -0.231004 -5.741398 5.593273 -4.695546 6.333934 -0.639112 -3.662156 3.395266 -0.012990 0.539910 0.506420 -4.315882 -0.851514 -7.327003 13.130380 0.107560 3.693527 -5.650084 0.234229 6.153400 3.059130 -4.004408 -10.800994 -8.738451 4.904145 37.262314 -1.125130 1.954420 -12.497980 -31.830284 -16.005904 6.218369 -53.062187 -4.860183 -2.424180 -12.634546 -18.603759 -0.705438 -3.670381 2.819402 0.902400 0.227960 0.056580 0.478510 25.579829 20.266551 8.538754 57.946631 9.191709 -4.136690 14.675504 21.628540 0.815996 1.840469 -1.388142 -0.243230 0.319340 -0.063830 -0.181370 
0.432640 16.824750 -1.067690 -4.309326 -2.794748 2.804445 -14.934005 12.918760 2.937816 1.662703 -0.404759 -5.181743 -6.712783 4.337050 4.786403 -0.553408 4.080148 3.638514 0.541500 0.045060 0.238830 18.573588 -10.967247 3.006179 1.067488 -0.226657 -5.779954 5.604497 -4.692368 6.344233 -0.636593 -3.661184 3.393249 -0.009620 0.538720 0.503500 -4.314720 -0.848474 -7.319457 13.121357 0.107081 3.695113 -5.646064 0.231852 6.159958 3.059482 -4.017025 -10.753483 -8.738063 4.897489 37.100468 -1.179860 1.979330 -12.517610 -31.705615 -15.924799 6.167955 -53.202259 -4.980216 -2.378860 -12.651073 -18.565265 -0.699904 -3.672108 2.820104 0.899010 0.228010 0.055380 0.477420 25.456061 20.186401 8.494330 58.046910 9.263789 -4.106711 14.780053 21.650324 0.825527 1.843242 -1.390900 -0.244250 0.318980 -0.063940 -0.180490 
0.432210 16.825450 -1.069860 -4.274618 -2.733171 2.776357 -14.938582 12.930265 2.934683 1.607337 -0.408512 -5.246140 -6.616181 4.333834 4.927139 -0.559134 4.068554 3.641533 0.545780 0.049740 0.242250 18.567385 -10.966630 3.007963 1.050144 -0.227193 -5.776808 5.609408 -4.692241 6.337998 -0.638216 -3.659591 3.394351 -0.006680 0.535260 0.502410 -4.299686 -0.866900 -7.321821 13.029353 0.085933 3.767147 -5.599065 0.220150 6.187257 3.074997 -4.012810 -10.768809 -8.740893 4.890184 37.109222 -1.231800 2.001830 -12.643910 -31.577496 -15.954616 6.165996 -53.368378 -5.089845 -2.371932 -12.610391 -18.596254 -0.709521 -3.668642 2.818537 0.902810 0.225760 0.058160 0.479030 25.312259 20.215304 8.498384 58.105717 9.322041 -4.116729 14.907334 21.718573 0.841595 1.842747 -1.392027 -0.245170 0.319570 -0.067530 -0.181990 
0.430950 16.826480 -1.071940 -4.197071 -2.736222 2.736375 -14.945154 12.944096 2.938106 1.559157 -0.406243 -5.282698 -6.612580 4.347185 5.044237 -0.560425 4.062871 3.640126 0.550390 0.056680 0.244510 18.557856 -10.966832 3.005028 0.974825 -0.223389 -5.802190 5.624898 -4.701668 6.405317 -0.639765 -3.656080 3.395481 -0.004130 0.528830 0.501670 -4.276060 -0.891612 -7.328066 12.863523 0.084854 3.867670 -5.521609 0.233736 6.195056 3.076828 -4.028089 -10.797655 -8.800245 4.891600 37.196007 -1.256260 2.012210 -12.837850 -31.429331 -15.971186 6.161771 -53.537977 -5.188054 -2.366147 -12.570683 -18.614249 -0.717774 -3.663434 2.817756 0.906780 0.221370 0.063250 0.479770 25.183621 20.257538 8.512358 58.168082 9.369224 -4.140556 14.991111 21.800121 0.854167 1.842962 -1.391916 -0.243350 0.318410 -0.070960 -0.182620 
0.430850 16.827110 -1.074620 -4.205381 -2.765000 2.697160 -14.942357 12.955034 2.935174 1.589119 -0.408964 -5.340434 -6.598789 4.362814 5.198544 -0.559932 4.058086 3.639435 0.557600 0.065830 0.246090 18.557512 -10.972362 3.004142 0.960835 -0.212051 -5.861407 5.663828 -4.720381 6.539741 -0.641676 -3.655638 3.396351 -0.000910 0.524900 0.504060 -4.278957 -0.899654 -7.328540 12.919378 0.069647 3.951387 -5.568710 0.236448 6.233519 3.085333 -4.066963 -10.836536 -8.892588 4.922561 37.228853 -1.232030 2.009150 -12.927790 -31.258340 -16.031856 6.179433 -53.690449 -5.282169 -2.366060 -12.518059 -18.629153 -0.728949 -3.658853 2.821843 0.907910 0.219370 0.067600 0.483730 24.995016 20.341053 8.531667 58.275561 9.461550 -4.138539 15.111023 21.847971 0.866751 1.843102 -1.396566 -0.238830 0.315290 -0.076300 -0.181000 
0.430550 16.828770 -1.076860 -4.270056 -2.804753 2.652203 -14.935554 12.964941 2.932104 1.702780 -0.412110 -5.392963 -6.666319 4.396335 5.345904 -0.554438 4.060027 3.634948 0.565990 0.076580 0.248530 18.561100 -10.977883 3.004514 1.030979 -0.195739 -5.947832 5.664966 -4.733661 6.731587 -0.642563 -3.650551 3.398057 0.002520 0.518490 0.506390 -4.292954 -0.904590 -7.330087 13.087707 0.047468 4.033392 -5.655563 0.234421 6.266813 3.097188 -4.125421 -10.890052 -9.030194 4.967813 37.291449 -1.176900 1.996110 -12.948830 -31.128503 -16.115366 6.210409 -53.821495 -5.345335 -2.376392 -12.428606 -18.622596 -0.744019 -3.652346 2.829515 0.906420 0.216250 0.072380 0.487500 24.829984 20.452995 8.564529 58.320315 9.526769 -4.135175 15.331068 21.880537 0.894371 1.845492 -1.403739 -0.231670 0.309380 -0.083230 -0.178690 
